Coordinates
version=1
nRows=21
nColumns=33
inDegrees=yes

Units are S.I. units (second, meters, Newtons, ...)
Angles are in degrees.

endheader
time	ground_thorax_rot_x	ground_thorax_rot_y	ground_thorax_rot_z	ground_thorax_tx	ground_thorax_ty	ground_thorax_tz	clav_prot_r	clav_elev_r	scapula_abduction_r	scapula_elevation_r	scapula_upward_rot_r	scapula_winging_r	shoulder_elv_r	plane_of_elev_r	axial_rot_r	elbow_flexion_r	pro_sup_r	wrist_flex_r	wrist_dev_r	clav_prot_l	clav_elev_l	scapula_abduction_l	scapula_elevation_l	scapula_upward_rot_l	scapula_winging_l	shoulder_elv_l	plane_of_elev_l	axial_rot_l	elbow_flexion_l	pro_sup_l	wrist_flex_l	wrist_dev_l
      1.49000000	     23.06548100	     33.18199238	     11.14478969	      0.04988952	      1.01282360	     -0.05112836	    -15.41693435	     36.34314792	    -16.46862108	     27.44273133	     45.00000000	     -7.97345394	      6.53141303	    -90.00000000	     35.99008840	     70.65114480	      5.81859840	     45.19994100	    -22.10836210	     17.27673368	     -4.91261389	    -45.00000000	      0.59526949	     10.86502232	     21.20019687	      6.08246740	    -58.32745355	    -19.84391891	     63.03000260	     29.90629289	     -3.17333201	    -24.99999983
      1.50000000	     23.01322945	     33.24070365	     11.22772204	      0.04968343	      1.01269621	     -0.05125217	    -15.40020315	     36.33335164	    -16.41844162	     27.43521460	     45.00000000	     -7.97616643	      6.55944282	    -90.00000000	     35.96206000	     70.68328144	      5.84122587	     45.19629548	    -22.06628721	     17.26419995	     -4.95541051	    -45.00000000	      0.64239154	     10.91550354	     21.17715551	      6.09773176	    -58.23123813	    -19.83602144	     63.08034610	     29.89474545	     -3.17719983	    -24.99999983
      1.51000000	     22.96808693	     33.30576873	     11.31769790	      0.04942613	      1.01270576	     -0.05129400	    -15.39046830	     36.31930217	    -16.35949543	     27.42285756	     45.00000000	     -7.98134835	      6.58002613	    -90.00000000	     35.94147775	     70.73033983	      5.86495169	     45.19563543	    -22.02129937	     17.24940277	     -5.00139846	    -45.00000000	      0.69352789	     10.97172790	     21.15635423	      6.11526402	    -58.12296930	    -19.82526897	     63.14439441	     29.87864253	     -3.17815933	    -24.99999983
      1.52000000	     23.11548566	     33.20261466	     11.01803469	      0.04912999	      1.01277019	     -0.05090051	    -15.41160773	     36.23049736	    -16.24292115	     27.33566819	     45.00000000	     -8.02990455	      7.01561557	    -90.00000000	     35.50598574	     71.08074482	      6.58324993	     44.79311188	    -20.46593004	     17.38379231	     -5.57174715	    -45.00000000	      1.02884300	     10.55289591	     20.96358038	      6.68969398	    -57.93851691	    -19.59333652	     63.79376621	     29.35157906	     -2.65357459	    -24.99999983
      1.53000000	     23.11974092	     33.52660832	     11.31122427	      0.04894023	      1.01296814	     -0.05082753	    -15.41102504	     36.40428490	    -16.56961405	     27.50162789	     45.00000000	     -7.94108547	      7.10605542	    -90.00000000	     35.41561788	     71.23918437	      6.60878076	     44.50414431	    -20.39862215	     17.41685517	     -5.68711679	    -45.00000000	      1.09104128	     10.44752230	     20.92420373	      6.77188208	    -57.68091612	    -19.67172636	     63.71478971	     29.06799860	     -2.22792296	    -24.99999983
      1.54000000	     23.06259962	     33.59997059	     11.41441144	      0.04868196	      1.01308445	     -0.05093657	    -15.37729560	     36.39600303	    -16.46883523	     27.49729993	     45.00000000	     -7.93930868	      7.13243657	    -90.00000000	     35.38924350	     71.31137867	      6.61000687	     44.51297826	    -20.39699917	     17.39369045	     -5.71756035	    -45.00000000	      1.13894139	     10.53622622	     20.90280812	      6.79935924	    -57.54625647	    -19.66472162	     63.80051850	     29.04713179	     -2.22559277	    -24.99999983
      1.55000000	     23.13989319	     33.62934094	     11.12113573	      0.04823849	      1.01295609	     -0.05064406	    -15.43587269	     36.27449188	    -16.38594968	     27.37479817	     45.00000000	     -8.01146891	      7.30537840	    -90.00000000	     35.21651939	     71.90910557	      6.61971558	     43.63371545	    -19.99885164	     17.54982007	     -6.00528263	    -45.00000000	      1.22096432	     10.00373389	     20.82971744	      7.63641127	    -56.93983873	    -19.68765136	     64.35865130	     27.58699101	     -0.34765426	    -24.99999983
      1.56000000	     23.07554566	     33.71410566	     11.25204477	      0.04803068	      1.01311449	     -0.05076244	    -15.39949991	     36.27431408	    -16.29507417	     27.37848081	     45.00000000	     -8.00502790	      7.34593137	    -90.00000000	     35.17597491	     71.96141194	      6.61624095	     43.64827313	    -20.00531958	     17.52408176	     -6.03293920	    -45.00000000	      1.26965331	     10.10214587	     20.80881711	      7.65982346	    -56.79747061	    -19.68148865	     64.43618714	     27.56654544	     -0.35406726	    -24.99999983
      1.57000000	     23.00527250	     33.80399530	     11.38458397	      0.04780411	      1.01323675	     -0.05091017	    -15.36287270	     36.26885958	    -16.19301588	     27.37746350	     45.00000000	     -8.00086824	      7.38362905	    -90.00000000	     35.13829076	     72.03741534	      6.61297647	     43.66383370	    -20.00869429	     17.49665874	     -6.06658286	    -45.00000000	      1.32427633	     10.20565704	     20.78649483	      7.68411854	    -56.64172328	    -19.67687954	     64.51745801	     27.54234801	     -0.35208515	    -24.99999983
      1.58000000	     22.93025054	     33.89252536	     11.51622779	      0.04760073	      1.01332935	     -0.05105746	    -15.32373264	     36.26190506	    -16.08049665	     27.37457143	     45.00000000	     -7.99699928	      7.42391505	    -90.00000000	     35.09802639	     72.12996356	      6.60771063	     43.67786078	    -20.01029778	     17.46738036	     -6.10452228	    -45.00000000	      1.38366096	     10.31580685	     20.76401741	      7.71744246	    -56.47454160	    -19.67035574	     64.59605747	     27.51396654	     -0.33997608	    -24.99999983
      1.59000000	     22.85166677	     33.97690794	     11.64970288	      0.04738998	      1.01337580	     -0.05118387	    -15.28285126	     36.25238179	    -15.96040424	     27.37013928	     45.00000000	     -7.99422864	      7.47033660	    -90.00000000	     35.05163842	     72.23042633	      6.59932998	     43.68893945	    -20.01137970	     17.43677426	     -6.14425848	    -45.00000000	      1.44670434	     10.43190878	     20.73425564	      7.76035059	    -56.29759949	    -19.66043459	     64.66854535	     27.48346885	     -0.31961204	    -24.99999983
      1.60000000	     22.99194969	     34.14509767	     11.47311156	      0.04673591	      1.01315340	     -0.05096433	    -15.28629842	     36.26726430	    -15.99710377	     27.38374417	     45.00000000	     -7.98824205	      7.69692843	    -90.00000000	     34.82530281	     72.97117662	      5.89833386	     42.41868789	    -19.02886256	     17.74745489	     -6.38886108	    -45.00000000	      1.33760856	      9.32495065	     20.72658663	      8.93389593	    -54.95415506	    -19.87636338	     64.91314700	     24.43698822	      3.36647736	    -24.99999983
      1.61000000	     22.88968458	     34.23621817	     11.62488547	      0.04660008	      1.01311045	     -0.05111762	    -15.24860058	     36.25895599	    -15.88790639	     27.38015293	     45.00000000	     -7.98483491	      7.76441317	    -90.00000000	     34.75785931	     73.05279283	      5.88731568	     42.44428935	    -19.04253065	     17.71538436	     -6.42870870	    -45.00000000	      1.40323308	      9.44981877	     20.69992245	      8.98093392	    -54.77652275	    -19.85407261	     64.98558866	     24.41018261	      3.34971885	    -24.99999983
      1.62000000	     22.78394237	     34.32938148	     11.77878786	      0.04649082	      1.01306309	     -0.05127644	    -15.21029320	     36.23992757	    -15.76301415	     27.36535632	     45.00000000	     -7.98798582	      7.82994500	    -90.00000000	     34.69237397	     73.15536109	      5.87572680	     42.46870953	    -19.05043055	     17.68399701	     -6.48035378	    -45.00000000	      1.47770402	      9.57294200	     20.66734101	      9.02624131	    -54.58526433	    -19.83647034	     65.04250873	     24.38186836	      3.34626208	    -24.99999983
      1.63000000	     22.90537477	     34.52328760	     11.56934747	      0.04586205	      1.01298791	     -0.05100488	    -15.28988005	     36.16768513	    -15.82060247	     27.28838060	     45.00000000	     -8.03759925	      8.08020309	    -90.00000000	     34.44235240	     73.69164096	      4.80848788	     42.04922485	    -18.02594871	     18.07199103	     -6.76676885	    -45.00000000	      1.31296895	      8.15990221	     20.66258616	     10.32415809	    -52.88221518	    -20.22252299	     64.94154164	     21.29208571	      5.58446224	    -24.99999983
      1.64000000	     22.78761772	     34.62134758	     11.73492396	      0.04581723	      1.01284168	     -0.05119836	    -15.24695541	     36.15601710	    -15.68977420	     27.28147511	     45.00000000	     -8.03631193	      8.15414997	    -90.00000000	     34.36846092	     73.76965812	      4.79337095	     42.06898525	    -18.03996453	     18.03821548	     -6.82072575	    -45.00000000	      1.39346432	      8.29596725	     20.62991957	     10.37094478	    -52.68960636	    -20.20369025	     64.99585101	     21.27422855	      5.57235572	    -24.99999983
      1.65000000	     22.80818898	     34.69611074	     11.55605623	      0.04537000	      1.01324614	     -0.05124272	    -15.30923335	     35.93418324	    -15.43907379	     27.06347074	     45.00000000	     -8.15873341	      8.31215308	    -90.00000000	     34.21070221	     73.89780987	      4.56998984	     41.89907670	    -17.91464017	     18.02793286	     -7.00834000	    -45.00000000	      1.55929721	      8.36163990	     20.54590787	     10.56600177	    -52.02272630	    -20.22893574	     64.65616085	     21.01629754	      5.88717528	    -24.99999983
      1.66000000	     22.67598074	     34.79996313	     11.72807036	      0.04539465	      1.01296779	     -0.05142371	    -15.26293990	     35.92801617	    -15.31456173	     27.06242623	     45.00000000	     -8.15324466	      8.38420616	    -90.00000000	     34.13873887	     73.99572706	      4.55206864	     41.91442649	    -17.92040031	     17.99480097	     -7.05851307	    -45.00000000	      1.63765956	      8.49915366	     20.50671304	     10.62540494	    -51.82048577	    -20.19421842	     64.71209601	     20.99212394	      5.88881173	    -24.99999983
      1.67000000	     22.71915343	     34.96262493	     11.69281824	      0.04486019	      1.01273830	     -0.05117535	    -15.28112386	     35.92249700	    -15.34846958	     27.05551251	     45.00000000	     -8.15804303	      8.63104959	    -90.00000000	     33.89341111	     74.74551352	      3.04810512	     40.76784564	    -16.43503209	     18.38301666	     -7.26587437	    -45.00000000	      1.39173543	      7.03934168	     20.53833586	     11.63718805	    -50.01023469	    -20.05121075	     64.49707968	     18.89246180	      8.61801993	    -24.99999983
      1.68000000	     22.58121901	     35.06529040	     11.86912214	      0.04495054	      1.01247899	     -0.05139575	    -15.23993182	     35.90728825	    -15.21604626	     27.04502828	     45.00000000	     -8.16066125	      8.71475841	    -90.00000000	     33.80987588	     74.82778907	      3.02780645	     40.78827490	    -16.44764669	     18.35096108	     -7.33436359	    -45.00000000	      1.48510224	      7.17799092	     20.50084329	     11.68549420	    -49.80167373	    -20.02733367	     64.52884790	     18.87287416	      8.60781674	    -24.99999983
      1.69000000	     22.71712051	     35.22755835	     11.59254778	      0.04429541	      1.01260418	     -0.05129718	    -15.31102985	     35.74435161	    -15.10164474	     26.88326330	     45.00000000	     -8.25292599	      8.95122679	    -90.00000000	     33.57713532	     75.30594835	      1.45120090	     40.17796627	    -15.32243059	     18.65869309	     -7.62908402	    -45.00000000	      1.38597534	      6.01184737	     20.46081543	     12.57958193	    -47.94472840	    -20.10987237	     63.98778630	     17.14950888	     10.18038141	    -24.99999983
